<svg id="レイヤー_1" data-name="レイヤー 1" xmlns="http://www.w3.org/2000/svg" viewBox="0 0 349.45 37.05"><defs><style>.cls-1{fill:#25242f;}</style></defs><path class="cls-1" d="M0,3.4H4.45V19.92L21.68,3.4h5.6l-18,17.2,18.82,16H21.21L4.45,21.94V36.59H0Z"/><path class="cls-1" d="M51.55,18.34a11,11,0,0,1,.72,4,30.61,30.61,0,0,1-.47,4.9H35.48a7.76,7.76,0,0,0,2.3,4.47,7.24,7.24,0,0,0,5,1.62,19.69,19.69,0,0,0,8-1.59l.75,3.35a17.14,17.14,0,0,1-6.89,1.85,28.31,28.31,0,0,1-3.23.14,12.12,12.12,0,0,1-4.17-.79,8.89,8.89,0,0,1-3.61-2.35q-2.83-3.06-2.84-9a12,12,0,0,1,3.4-8.71,11.53,11.53,0,0,1,8.6-3.52,9.12,9.12,0,0,1,6.77,2.53A8.75,8.75,0,0,1,51.55,18.34ZM48,23.77l.1-1.27q0-4.29-3.21-5.7a7.14,7.14,0,0,0-5.34.12,6.69,6.69,0,0,0-2.16,1.6,8.42,8.42,0,0,0-2.11,5.25Z"/><path class="cls-1" d="M62.91,15.47a13.57,13.57,0,0,1,8.43-2.79Q82,12.68,82,24.42V36.59H77.58V24.7q0-4.05-1.41-6Q74.6,16.43,71,16.43a10.59,10.59,0,0,0-6.4,1.87,5.32,5.32,0,0,0-1.36,1.36V36.59H58.83V13.15h3.4Z"/><path class="cls-1" d="M89.72,16.76H87.21V13.85L93,9.52h1.19v3.63h6.7v3.61h-6.7v9.47c0,2.65.34,4.47,1,5.43s2,1.54,3.94,1.76l-.68,3.17q-7,.88-8.32-5.56a20.09,20.09,0,0,1-.4-4.15Z"/><path class="cls-1" d="M104.34,25.08a11.55,11.55,0,0,1,1.06-4.95,12.17,12.17,0,0,1,2.86-3.93,13.05,13.05,0,0,1,9.18-3.52,12.79,12.79,0,0,1,9,3.35,11.39,11.39,0,0,1,3.65,8.74,11.4,11.4,0,0,1-3.91,8.79A13.07,13.07,0,0,1,117,37.05a12.7,12.7,0,0,1-9-3.32A11.27,11.27,0,0,1,104.34,25.08Zm4.46-.26a8.79,8.79,0,0,0,.65,3.39,8.27,8.27,0,0,0,1.81,2.7,8.42,8.42,0,0,0,6.18,2.39A8.13,8.13,0,0,0,125.67,25a8.38,8.38,0,0,0-8.65-8.6,7.87,7.87,0,0,0-5.86,2.41A8.2,8.2,0,0,0,108.8,24.82Z"/><path class="cls-1" d="M150.35,3.4H163.5q6.66,0,10.64,3c2.88,2.15,4.31,5.26,4.31,9.3a12.39,12.39,0,0,1-4.54,10.08,16.9,16.9,0,0,1-11.07,3.54h-8.15v7.27h-4.34Zm13.08,22A11.14,11.14,0,0,0,171,23a8.75,8.75,0,0,0,2.88-7,7.55,7.55,0,0,0-3.24-6.6,13.31,13.31,0,0,0-7.8-2h-8.13v18Z"/><path class="cls-1" d="M182.72,25.08a11.69,11.69,0,0,1,1.05-4.95,12.47,12.47,0,0,1,2.86-3.93,13.08,13.08,0,0,1,9.19-3.52,12.75,12.75,0,0,1,9,3.35,11.4,11.4,0,0,1,3.66,8.74,11.4,11.4,0,0,1-3.91,8.79,13.1,13.1,0,0,1-9.19,3.49,12.73,12.73,0,0,1-9.05-3.32A11.29,11.29,0,0,1,182.72,25.08Zm4.45-.26a8.61,8.61,0,0,0,.66,3.39,8.22,8.22,0,0,0,8,5.09A8.13,8.13,0,0,0,204.05,25a8.38,8.38,0,0,0-8.65-8.6,7.87,7.87,0,0,0-5.86,2.41A8.16,8.16,0,0,0,187.17,24.82Z"/><path class="cls-1" d="M228.49,18.05a5.59,5.59,0,0,0-2.92-.85,3.92,3.92,0,0,0-2.46.75,7.45,7.45,0,0,0-1.7,1.9A13.5,13.5,0,0,0,219.49,25V36.59H215V13.15h3.68l.75,4.29a9,9,0,0,1,4.62-4.39,5.28,5.28,0,0,1,1.84-.37q.82,0,1.23,0c.26,0,.52.06.77.11a9.63,9.63,0,0,1,1.57.56Z"/><path class="cls-1" d="M234.52,16.76H232V13.85l5.76-4.33H239v3.63h6.7v3.61H239v9.47c0,2.65.33,4.47,1,5.43s2,1.54,3.93,1.76l-.68,3.17q-7,.88-8.32-5.56a20.82,20.82,0,0,1-.39-4.15Z"/><path class="cls-1" d="M266.41,4.83a9.24,9.24,0,0,0-4.33-1.15,6.19,6.19,0,0,0-3.2.66,4.43,4.43,0,0,0-1.65,1.78A12.65,12.65,0,0,0,256.17,12v1.17h9.05v3.61h-9.05V36.59H251.7V16.76h-4.34V13.15h4.34v-.89q0-8.77,5.69-11.35a9.75,9.75,0,0,1,4-.89,13.93,13.93,0,0,1,6.05,1.27Z"/><path class="cls-1" d="M267.33,25.08a11.69,11.69,0,0,1,1.05-4.95,12.47,12.47,0,0,1,2.86-3.93,13.08,13.08,0,0,1,9.19-3.52,12.75,12.75,0,0,1,9,3.35,11.4,11.4,0,0,1,3.66,8.74,11.43,11.43,0,0,1-3.91,8.79A13.1,13.1,0,0,1,280,37.05,12.73,12.73,0,0,1,271,33.73,11.29,11.29,0,0,1,267.33,25.08Zm4.45-.26a8.61,8.61,0,0,0,.66,3.39,8.22,8.22,0,0,0,8,5.09A8.13,8.13,0,0,0,288.66,25a8.38,8.38,0,0,0-8.65-8.6,7.87,7.87,0,0,0-5.86,2.41A8.16,8.16,0,0,0,271.78,24.82Z"/><path class="cls-1" d="M299.65,0h4.45V28.57a9.92,9.92,0,0,0,.33,3.19,3.25,3.25,0,0,0,2.25,1.94L306,36.59c-2.42.31-4.14-.33-5.18-1.93a11,11,0,0,1-1.19-5.76Z"/><path class="cls-1" d="M317.81,3.52a2.84,2.84,0,0,1-.79,2.1,2.84,2.84,0,0,1-2.11.8,2.81,2.81,0,0,1-2.11-.8,2.84,2.84,0,0,1-.8-2.1,2.81,2.81,0,0,1,.8-2.1,2.84,2.84,0,0,1,2.11-.79,2.88,2.88,0,0,1,2.11.79A2.8,2.8,0,0,1,317.81,3.52Zm-5.13,9.63h4.45V36.59h-4.45Z"/><path class="cls-1" d="M323.67,25.08a11.55,11.55,0,0,1,1.06-4.95,12.17,12.17,0,0,1,2.86-3.93,13.05,13.05,0,0,1,9.18-3.52,12.79,12.79,0,0,1,9,3.35,11.43,11.43,0,0,1,3.65,8.74,11.4,11.4,0,0,1-3.91,8.79,13.07,13.07,0,0,1-9.19,3.49,12.74,12.74,0,0,1-9.05-3.32A11.29,11.29,0,0,1,323.67,25.08Zm4.45-.26a8.61,8.61,0,0,0,.66,3.39,8.27,8.27,0,0,0,1.81,2.7,8.42,8.42,0,0,0,6.18,2.39A8.13,8.13,0,0,0,345,25a8.38,8.38,0,0,0-8.65-8.6,7.87,7.87,0,0,0-5.86,2.41A8.16,8.16,0,0,0,328.12,24.82Z"/></svg>